<svg xmlns="http://www.w3.org/2000/svg" viewBox="-41.837168574084174 -51.5 83.67433714816835 78.5"><g stroke-width="0.65" stroke-linejoin="round" stroke-linecap="round"><polygon points="0,-23 39.83717,0 0,23 -39.83717,0" fill="#fff5df" stroke="#26213f"/><polyline points="2.59808,-21.5 -37.23909,1.5" fill="none" stroke="#855bc0"/><polyline points="-2.59808,-21.5 37.23909,1.5" fill="none" stroke="#855bc0"/><polyline points="11.25833,-16.5 -28.57884,6.5" fill="none" stroke="#855bc0"/><polyline points="-11.25833,-16.5 28.57884,6.5" fill="none" stroke="#855bc0"/><polyline points="19.91858,-11.5 -19.91858,11.5" fill="none" stroke="#855bc0"/><polyline points="-19.91858,-11.5 19.91858,11.5" fill="none" stroke="#855bc0"/><polyline points="28.57884,-6.5 -11.25833,16.5" fill="none" stroke="#855bc0"/><polyline points="-28.57884,-6.5 11.25833,16.5" fill="none" stroke="#855bc0"/><polyline points="37.23909,-1.5 -2.59808,21.5" fill="none" stroke="#855bc0"/><polyline points="-37.23909,-1.5 2.59808,21.5" fill="none" stroke="#855bc0"/><polygon points="-21.65064,-10.5 -14.72243,-6.5 -19.91858,-3.5 -26.84679,-7.5" fill="#855bc0" stroke="#26213f"/><polygon points="-19.91858,1.5 -26.84679,-2.5 -26.84679,-7.5 -19.91858,-3.5" fill="#fff5df" stroke="#26213f"/><polyline points="-25.98076,-3 -25.98076,-6 -20.78461,-3" fill="none" stroke="#23becb"/><polygon points="-25.98076,-3 -20.78461,0 -20.78461,-2 -25.98076,-5" fill="#26213f" stroke="#23becb"/><polygon points="-14.72243,-1.5 -19.91858,1.5 -19.91858,-3.5 -14.72243,-6.5" fill="#626487" stroke="#26213f"/><polyline points="-19.05256,0 -19.05256,-3 -15.58846,-5" fill="none" stroke="#23becb"/><polygon points="-21.65064,-18.5 -14.72243,-14.5 -19.91858,-11.5 -26.84679,-15.5" fill="#855bc0" stroke="#26213f"/><polygon points="-19.91858,-6.5 -26.84679,-10.5 -26.84679,-15.5 -19.91858,-11.5" fill="#fff5df" stroke="#26213f"/><polyline points="-25.98076,-11 -25.98076,-14 -20.78461,-11" fill="none" stroke="#ef4baf"/><polygon points="-25.98076,-11 -20.78461,-8 -20.78461,-10 -25.98076,-13" fill="#26213f" stroke="#23becb"/><polygon points="-14.72243,-9.5 -19.91858,-6.5 -19.91858,-11.5 -14.72243,-14.5" fill="#626487" stroke="#26213f"/><polyline points="-19.05256,-8 -19.05256,-11 -15.58846,-13" fill="none" stroke="#ef4baf"/><polygon points="-12.12436,-5 -5.19615,-1 -10.3923,2 -17.32051,-2" fill="#855bc0" stroke="#26213f"/><polygon points="-10.3923,7 -17.32051,3 -17.32051,-2 -10.3923,2" fill="#fff5df" stroke="#26213f"/><polyline points="-16.45448,2.5 -16.45448,-0.5 -11.25833,2.5" fill="none" stroke="#23becb"/><polygon points="-16.45448,2.5 -11.25833,5.5 -11.25833,3.5 -16.45448,0.5" fill="#26213f" stroke="#23becb"/><polygon points="-5.19615,4 -10.3923,7 -10.3923,2 -5.19615,-1" fill="#626487" stroke="#26213f"/><polyline points="-9.52628,5.5 -9.52628,2.5 -6.06218,0.5" fill="none" stroke="#23becb"/><polygon points="-21.65064,-26.5 -14.72243,-22.5 -19.91858,-19.5 -26.84679,-23.5" fill="#855bc0" stroke="#26213f"/><polygon points="-19.91858,-14.5 -26.84679,-18.5 -26.84679,-23.5 -19.91858,-19.5" fill="#fff5df" stroke="#26213f"/><polyline points="-25.98076,-19 -25.98076,-22 -20.78461,-19" fill="none" stroke="#23becb"/><polygon points="-25.98076,-19 -20.78461,-16 -20.78461,-18 -25.98076,-21" fill="#26213f" stroke="#23becb"/><polygon points="-14.72243,-17.5 -19.91858,-14.5 -19.91858,-19.5 -14.72243,-22.5" fill="#626487" stroke="#26213f"/><polyline points="-19.05256,-16 -19.05256,-19 -15.58846,-21" fill="none" stroke="#23becb"/><polygon points="-12.12436,-13 -5.19615,-9 -10.3923,-6 -17.32051,-10" fill="#855bc0" stroke="#26213f"/><polygon points="-10.3923,-1 -17.32051,-5 -17.32051,-10 -10.3923,-6" fill="#fff5df" stroke="#26213f"/><polyline points="-16.45448,-5.5 -16.45448,-8.5 -11.25833,-5.5" fill="none" stroke="#ef4baf"/><polygon points="-16.45448,-5.5 -11.25833,-2.5 -11.25833,-4.5 -16.45448,-7.5" fill="#26213f" stroke="#23becb"/><polygon points="2.59808,13.5 -23.38269,-1.5 -23.38269,-37.5 2.59808,-22.5" fill="#fff5df" stroke="#26213f"/><polyline points="-22.51666,-2 -22.51666,-36 1.73205,-22" fill="none" stroke="#23becb"/><polygon points="-5.19615,-4 -10.3923,-1 -10.3923,-6 -5.19615,-9" fill="#626487" stroke="#26213f"/><polyline points="-9.52628,-2.5 -9.52628,-5.5 -6.06218,-7.5" fill="none" stroke="#ef4baf"/><polygon points="-2.59808,0.5 4.33013,4.5 -0.86603,7.5 -7.79423,3.5" fill="#855bc0" stroke="#26213f"/><polygon points="-0.86603,12.5 -7.79423,8.5 -7.79423,3.5 -0.86603,7.5" fill="#fff5df" stroke="#26213f"/><polyline points="-6.9282,8 -6.9282,5 -1.73205,8" fill="none" stroke="#23becb"/><polygon points="-6.9282,8 -1.73205,11 -1.73205,9 -6.9282,6" fill="#26213f" stroke="#23becb"/><polygon points="23.38269,1.5 2.59808,13.5 2.59808,-22.5 23.38269,-34.5" fill="#626487" stroke="#26213f"/><polyline points="3.4641,12 3.4641,-22 22.51666,-33" fill="none" stroke="#23becb"/><polygon points="4.33013,9.5 -0.86603,12.5 -0.86603,7.5 4.33013,4.5" fill="#626487" stroke="#26213f"/><polyline points="0,11 0,8 3.4641,6" fill="none" stroke="#23becb"/><polygon points="-21.65064,-34.5 -14.72243,-30.5 -19.91858,-27.5 -26.84679,-31.5" fill="#855bc0" stroke="#26213f"/><polygon points="-19.91858,-22.5 -26.84679,-26.5 -26.84679,-31.5 -19.91858,-27.5" fill="#fff5df" stroke="#26213f"/><polyline points="-25.98076,-27 -25.98076,-30 -20.78461,-27" fill="none" stroke="#ef4baf"/><polygon points="-25.98076,-27 -20.78461,-24 -20.78461,-26 -25.98076,-29" fill="#26213f" stroke="#23becb"/><polygon points="-14.72243,-25.5 -19.91858,-22.5 -19.91858,-27.5 -14.72243,-30.5" fill="#626487" stroke="#26213f"/><polyline points="-19.05256,-24 -19.05256,-27 -15.58846,-29" fill="none" stroke="#ef4baf"/><polygon points="-2.59808,-48.5 6.06218,-43.5 -1.73205,-39 -10.3923,-44" fill="#855bc0" stroke="#26213f"/><polygon points="-2.59808,-49.5 23.38269,-34.5 2.59808,-22.5 -23.38269,-37.5" fill="#855bc0" stroke="#26213f"/><polygon points="-12.12436,-21 -5.19615,-17 -10.3923,-14 -17.32051,-18" fill="#855bc0" stroke="#26213f"/><polygon points="-10.3923,-9 -17.32051,-13 -17.32051,-18 -10.3923,-14" fill="#fff5df" stroke="#26213f"/><polyline points="-16.45448,-13.5 -16.45448,-16.5 -11.25833,-13.5" fill="none" stroke="#23becb"/><polygon points="-16.45448,-13.5 -11.25833,-10.5 -11.25833,-12.5 -16.45448,-15.5" fill="#26213f" stroke="#23becb"/><polygon points="-1.73205,-34 -10.3923,-39 -10.3923,-44 -1.73205,-39" fill="#fff5df" stroke="#26213f"/><polyline points="-9.52628,-39.5 -9.52628,-42.5 -2.59808,-38.5" fill="none" stroke="#ef4baf"/><polygon points="6.06218,-38.5 -1.73205,-34 -1.73205,-39 6.06218,-43.5" fill="#626487" stroke="#26213f"/><polyline points="-0.86603,-35.5 -0.86603,-38.5 5.19615,-42" fill="none" stroke="#ef4baf"/><polygon points="-5.19615,-12 -10.3923,-9 -10.3923,-14 -5.19615,-17" fill="#626487" stroke="#26213f"/><polyline points="-9.52628,-10.5 -9.52628,-13.5 -6.06218,-15.5" fill="none" stroke="#23becb"/><polygon points="-2.59808,-7.5 4.33013,-3.5 -0.86603,-0.5 -7.79423,-4.5" fill="#855bc0" stroke="#26213f"/><polygon points="-0.86603,4.5 -7.79423,0.5 -7.79423,-4.5 -0.86603,-0.5" fill="#fff5df" stroke="#26213f"/><polyline points="-6.9282,0 -6.9282,-3 -1.73205,0" fill="none" stroke="#ef4baf"/><polygon points="-6.9282,0 -1.73205,3 -1.73205,1 -6.9282,-2" fill="#26213f" stroke="#23becb"/><polygon points="4.33013,1.5 -0.86603,4.5 -0.86603,-0.5 4.33013,-3.5" fill="#626487" stroke="#26213f"/><polyline points="0,3 0,0 3.4641,-2" fill="none" stroke="#ef4baf"/><polygon points="13.85641,-34 12.12436,-33 12.12436,-35 13.85641,-36" fill="#626487" stroke="#26213f"/><polygon points="12.12436,-33 10.3923,-34 10.3923,-36 12.12436,-35" fill="#626487" stroke="#26213f"/><polygon points="12.12436,-37 13.85641,-36 12.12436,-35 10.3923,-36" fill="#626487" stroke="#26213f"/><polygon points="-12.12436,-29 -5.19615,-25 -10.3923,-22 -17.32051,-26" fill="#855bc0" stroke="#26213f"/><polygon points="-10.3923,-17 -17.32051,-21 -17.32051,-26 -10.3923,-22" fill="#fff5df" stroke="#26213f"/><polyline points="-16.45448,-21.5 -16.45448,-24.5 -11.25833,-21.5" fill="none" stroke="#ef4baf"/><polygon points="-16.45448,-21.5 -11.25833,-18.5 -11.25833,-20.5 -16.45448,-23.5" fill="#26213f" stroke="#23becb"/><polyline points="14.72243,-41.5 9.52628,-38.5" fill="none" stroke="#ef4baf"/><polygon points="-5.19615,-20 -10.3923,-17 -10.3923,-22 -5.19615,-25" fill="#626487" stroke="#26213f"/><polyline points="-9.52628,-18.5 -9.52628,-21.5 -6.06218,-23.5" fill="none" stroke="#ef4baf"/><polyline points="12.12436,-36 12.12436,-47" fill="none" stroke="#23becb"/><polygon points="-2.59808,-15.5 4.33013,-11.5 -0.86603,-8.5 -7.79423,-12.5" fill="#855bc0" stroke="#26213f"/><polygon points="-0.86603,-3.5 -7.79423,-7.5 -7.79423,-12.5 -0.86603,-8.5" fill="#fff5df" stroke="#26213f"/><polyline points="-6.9282,-8 -6.9282,-11 -1.73205,-8" fill="none" stroke="#23becb"/><polygon points="-6.9282,-8 -1.73205,-5 -1.73205,-7 -6.9282,-10" fill="#26213f" stroke="#23becb"/><polyline points="9.52628,-44.5 14.72243,-41.5" fill="none" stroke="#ef4baf"/><polygon points="4.33013,-6.5 -0.86603,-3.5 -0.86603,-8.5 4.33013,-11.5" fill="#626487" stroke="#26213f"/><polyline points="0,-5 0,-8 3.4641,-10" fill="none" stroke="#23becb"/><polygon points="-2.59808,-23.5 4.33013,-19.5 -0.86603,-16.5 -7.79423,-20.5" fill="#855bc0" stroke="#26213f"/><polygon points="-0.86603,-11.5 -7.79423,-15.5 -7.79423,-20.5 -0.86603,-16.5" fill="#fff5df" stroke="#26213f"/><polyline points="-6.9282,-16 -6.9282,-19 -1.73205,-16" fill="none" stroke="#ef4baf"/><polygon points="-6.9282,-16 -1.73205,-13 -1.73205,-15 -6.9282,-18" fill="#26213f" stroke="#23becb"/><polygon points="4.33013,-14.5 -0.86603,-11.5 -0.86603,-16.5 4.33013,-19.5" fill="#626487" stroke="#26213f"/><polyline points="0,-13 0,-16 3.4641,-18" fill="none" stroke="#ef4baf"/></g></svg>