<svg xmlns="http://www.w3.org/2000/svg" viewBox="-41.837168574084174 -52.5 83.67433714816835 79.5"><g stroke-width="0.65" stroke-linejoin="round" stroke-linecap="round"><polygon points="0,23 -39.83717,0 0,-23 39.83717,0" fill="#fff5df" stroke="#493c32"/><polyline points="32.04294,-1.52 34.64102,-3.02" fill="none" stroke="#b6a58d"/><polyline points="-32.04294,-1.52 -34.64102,-3.02" fill="none" stroke="#b6a58d"/><polyline points="25.98076,-5.02 28.57884,-6.52" fill="none" stroke="#b6a58d"/><polyline points="-25.98076,-5.02 -28.57884,-6.52" fill="none" stroke="#b6a58d"/><polyline points="19.91858,-8.52 22.51666,-10.02" fill="none" stroke="#b6a58d"/><polyline points="-19.91858,-8.52 -22.51666,-10.02" fill="none" stroke="#b6a58d"/><polyline points="13.85641,-12.02 16.45448,-13.52" fill="none" stroke="#b6a58d"/><polyline points="-13.85641,-12.02 -16.45448,-13.52" fill="none" stroke="#b6a58d"/><polyline points="7.79423,-15.52 10.3923,-17.02" fill="none" stroke="#b6a58d"/><polyline points="-7.79423,-15.52 -10.3923,-17.02" fill="none" stroke="#b6a58d"/><polyline points="1.73205,-19.02 4.33013,-20.52" fill="none" stroke="#b6a58d"/><polyline points="-1.73205,-19.02 -4.33013,-20.52" fill="none" stroke="#b6a58d"/><polygon points="-2.18251,-16.35796 -2.41933,-17.22123 -2.41933,-22.22123 -2.18251,-21.35796" fill="#bc9356" stroke="#493c32"/><polyline points="-2.18251,-17.35796 -2.41933,-18.22123" fill="none" stroke="#493c32"/><polyline points="-2.18251,-20.35796 -2.41933,-21.22123" fill="none" stroke="#493c32"/><polygon points="2.41933,-16.77877 1.73205,-16 1.73205,-21 2.41933,-21.77877" fill="#bc9356" stroke="#493c32"/><polyline points="2.41933,-17.77877 1.73205,-17" fill="none" stroke="#493c32"/><polyline points="2.41933,-20.77877 1.73205,-20" fill="none" stroke="#493c32"/><polygon points="-1.11205,-15.73993 -2.18251,-16.35796 -2.18251,-21.35796 -1.11205,-20.73993" fill="#bc9356" stroke="#493c32"/><polyline points="-1.11205,-16.73993 -2.18251,-17.35796" fill="none" stroke="#493c32"/><polyline points="-1.11205,-19.73993 -2.18251,-20.35796" fill="none" stroke="#493c32"/><polygon points="1.73205,-16 0.38318,-15.6032 0.38318,-20.6032 1.73205,-21" fill="#bc9356" stroke="#493c32"/><polyline points="1.73205,-17 0.38318,-16.6032" fill="none" stroke="#493c32"/><polyline points="1.73205,-20 0.38318,-19.6032" fill="none" stroke="#493c32"/><polygon points="-1.73205,-23 -0.38318,-23.3968 1.11205,-23.26007 2.18251,-22.64204 2.41933,-21.77877 1.73205,-21 0.38318,-20.6032 -1.11205,-20.73993 -2.18251,-21.35796 -2.41933,-22.22123" fill="#bc9356" stroke="#493c32"/><polygon points="0.38318,-15.6032 -1.11205,-15.73993 -1.11205,-20.73993 0.38318,-20.6032" fill="#bc9356" stroke="#493c32"/><polyline points="0.38318,-16.6032 -1.11205,-16.73993" fill="none" stroke="#493c32"/><polyline points="0.38318,-19.6032 -1.11205,-19.73993" fill="none" stroke="#493c32"/><polygon points="-6.49519,11.75 -22.08365,2.75 3.03109,-11.75 18.61955,-2.75" fill="#b6a58d" stroke="#493c32"/><polygon points="28.57884,2.1 27.53961,1.5 27.53961,-3.45 28.57884,-2.85" fill="#bc9356" stroke="#493c32"/><polygon points="29.61807,1.5 28.57884,2.1 28.57884,-2.85 29.61807,-3.45" fill="#bc9356" stroke="#493c32"/><polygon points="28.57884,-2.85 27.53961,-3.45 28.57884,-4.05 29.61807,-3.45" fill="#bc9356" stroke="#493c32"/><polygon points="26.19727,-6.475 28.57884,-7.04454 28.57884,-6.94445 28.34068,-6.8875" fill="#758464" stroke="#758464"/><polygon points="28.57884,-7.04454 30.96041,-6.475 28.817,-6.8875 28.57884,-6.94445" fill="#758464" stroke="#758464"/><polygon points="30.96041,-6.475 31.94689,-5.1 28.91564,-6.75 28.817,-6.8875" fill="#758464" stroke="#758464"/><polygon points="25.21079,-5.1 26.19727,-6.475 28.34068,-6.8875 28.24203,-6.75" fill="#758464" stroke="#758464"/><polygon points="32.28369,-2.9 31.19857,-1.3875 30.96041,-3.725 31.94689,-5.1" fill="#758464" stroke="#758464"/><polygon points="25.95911,-1.3875 24.87399,-2.9 25.21079,-5.1 26.19727,-3.725" fill="#758464" stroke="#758464"/><polygon points="31.94689,-5.1 30.96041,-3.725 28.817,-6.6125 28.91564,-6.75" fill="#758464" stroke="#758464"/><polygon points="26.19727,-3.725 25.21079,-5.1 28.24203,-6.75 28.34068,-6.6125" fill="#758464" stroke="#758464"/><polygon points="18.61955,-1.75 -6.49519,12.75 -6.49519,11.75 18.61955,-2.75" fill="#b6a58d" stroke="#493c32"/><polygon points="31.19857,-1.3875 28.57884,-0.761 28.57884,-3.15546 30.96041,-3.725" fill="#758464" stroke="#758464"/><polygon points="28.57884,-0.761 25.95911,-1.3875 26.19727,-3.725 28.57884,-3.15546" fill="#758464" stroke="#758464"/><polygon points="30.96041,-3.725 28.57884,-3.15546 28.57884,-6.55555 28.817,-6.6125" fill="#758464" stroke="#758464"/><polygon points="28.57884,-3.15546 26.19727,-3.725 28.34068,-6.6125 28.57884,-6.55555" fill="#758464" stroke="#758464"/><polygon points="-6.49519,12.75 -22.08365,3.75 -22.08365,2.75 -6.49519,11.75" fill="#b6a58d" stroke="#493c32"/><polygon points="17.75352,-2.75 -6.49519,11.25 -6.49519,-18.75 17.75352,-32.75" fill="#b6a58d" stroke="#493c32"/><polygon points="17.75352,-2.75 17.0607,-2.35 17.0607,-32.35 17.75352,-32.75" fill="#bc9356" stroke="#493c32"/><polygon points="11.69134,0.75 10.99852,1.15 10.99852,-28.85 11.69134,-29.25" fill="#bc9356" stroke="#493c32"/><polygon points="5.62917,4.25 4.93634,4.65 4.93634,-25.35 5.62917,-25.75" fill="#bc9356" stroke="#493c32"/><polygon points="-0.43301,7.75 -1.12583,8.15 -1.12583,-21.85 -0.43301,-22.25" fill="#bc9356" stroke="#493c32"/><polygon points="-6.49519,11.25 -6.49519,11.25 -6.49519,-18.75 -6.49519,-18.75" fill="#bc9356" stroke="#493c32"/><polyline points="17.75352,-2.75 -6.49519,11.25" fill="none" stroke="#bc9356"/><polyline points="17.75352,-12.75 -6.49519,1.25" fill="none" stroke="#bc9356"/><polyline points="17.75352,-22.75 -6.49519,-8.75" fill="none" stroke="#bc9356"/><polyline points="17.75352,-32.75 -6.49519,-18.75" fill="none" stroke="#bc9356"/><polyline points="16.8875,-13.25 12.55737,-18.75" fill="none" stroke="#bc9356"/><polyline points="-1.29904,-2.75 -5.62917,-8.25" fill="none" stroke="#bc9356"/><polyline points="16.8875,-23.25 12.55737,-28.75" fill="none" stroke="#bc9356"/><polyline points="-1.29904,-12.75 -5.62917,-18.25" fill="none" stroke="#bc9356"/><polygon points="15.15544,-4.25 15.15544,-8.75 12.12436,-7 12.12436,-2.5" fill="#5a9296" stroke="#493c32"/><polyline points="13.6399,-3.375 13.6399,-7.875" fill="none" stroke="#493c32"/><polyline points="15.15544,-6.275 12.12436,-4.525" fill="none" stroke="#bc9356"/><polygon points="8.22724,-0.25 8.22724,-4.75 5.19615,-3 5.19615,1.5" fill="#5a9296" stroke="#493c32"/><polyline points="6.7117,0.625 6.7117,-3.875" fill="none" stroke="#493c32"/><polyline points="8.22724,-2.275 5.19615,-0.525" fill="none" stroke="#bc9356"/><polygon points="1.29904,3.75 1.29904,-0.75 -1.73205,1 -1.73205,5.5" fill="#5a9296" stroke="#493c32"/><polyline points="-0.21651,4.625 -0.21651,0.125" fill="none" stroke="#493c32"/><polyline points="1.29904,1.725 -1.73205,3.475" fill="none" stroke="#bc9356"/><polygon points="15.15544,-14.25 15.15544,-18.75 12.12436,-17 12.12436,-12.5" fill="#5a9296" stroke="#493c32"/><polyline points="13.6399,-13.375 13.6399,-17.875" fill="none" stroke="#493c32"/><polyline points="15.15544,-16.275 12.12436,-14.525" fill="none" stroke="#bc9356"/><polygon points="8.22724,-10.25 8.22724,-14.75 5.19615,-13 5.19615,-8.5" fill="#5a9296" stroke="#493c32"/><polyline points="6.7117,-9.375 6.7117,-13.875" fill="none" stroke="#493c32"/><polyline points="8.22724,-12.275 5.19615,-10.525" fill="none" stroke="#bc9356"/><polygon points="1.29904,-6.25 1.29904,-10.75 -1.73205,-9 -1.73205,-4.5" fill="#5a9296" stroke="#493c32"/><polyline points="-0.21651,-5.375 -0.21651,-9.875" fill="none" stroke="#493c32"/><polyline points="1.29904,-8.275 -1.73205,-6.525" fill="none" stroke="#bc9356"/><polygon points="15.15544,-24.25 15.15544,-28.75 12.12436,-27 12.12436,-22.5" fill="#5a9296" stroke="#493c32"/><polyline points="13.6399,-23.375 13.6399,-27.875" fill="none" stroke="#493c32"/><polyline points="15.15544,-26.275 12.12436,-24.525" fill="none" stroke="#bc9356"/><polygon points="8.22724,-20.25 8.22724,-24.75 5.19615,-23 5.19615,-18.5" fill="#5a9296" stroke="#493c32"/><polyline points="6.7117,-19.375 6.7117,-23.875" fill="none" stroke="#493c32"/><polyline points="8.22724,-22.275 5.19615,-20.525" fill="none" stroke="#bc9356"/><polygon points="1.29904,-16.25 1.29904,-20.75 -1.73205,-19 -1.73205,-14.5" fill="#5a9296" stroke="#493c32"/><polyline points="-0.21651,-15.375 -0.21651,-19.875" fill="none" stroke="#493c32"/><polyline points="1.29904,-18.275 -1.73205,-16.525" fill="none" stroke="#bc9356"/><polygon points="-6.49519,11.25 -21.21762,2.75 -21.21762,-27.25 -6.49519,-18.75" fill="#fff5df" stroke="#493c32"/><polygon points="-6.49519,11.25 -7.18801,10.85 -7.18801,-19.15 -6.49519,-18.75" fill="#bc9356" stroke="#493c32"/><polygon points="-10.1758,9.125 -10.86862,8.725 -10.86862,-21.275 -10.1758,-20.875" fill="#bc9356" stroke="#493c32"/><polygon points="-13.85641,7 -14.54923,6.6 -14.54923,-23.4 -13.85641,-23" fill="#bc9356" stroke="#493c32"/><polygon points="-17.53701,4.875 -18.22983,4.475 -18.22983,-25.525 -17.53701,-25.125" fill="#bc9356" stroke="#493c32"/><polygon points="-21.21762,2.75 -21.21762,2.75 -21.21762,-27.25 -21.21762,-27.25" fill="#bc9356" stroke="#493c32"/><polyline points="-6.49519,11.25 -21.21762,2.75" fill="none" stroke="#bc9356"/><polyline points="-6.49519,1.25 -21.21762,-7.25" fill="none" stroke="#bc9356"/><polyline points="-6.49519,-8.75 -21.21762,-17.25" fill="none" stroke="#bc9356"/><polyline points="-6.49519,-18.75 -21.21762,-27.25" fill="none" stroke="#bc9356"/><polyline points="-7.36122,-0.25 -9.30977,-9.375" fill="none" stroke="#bc9356"/><polyline points="-18.40304,-6.625 -20.3516,-15.75" fill="none" stroke="#bc9356"/><polyline points="-7.36122,-10.25 -9.30977,-19.375" fill="none" stroke="#bc9356"/><polyline points="-18.40304,-16.625 -20.3516,-25.75" fill="none" stroke="#bc9356"/><polygon points="-9.09327,6.75 -9.09327,2.25 -12.12436,0.5 -12.12436,5" fill="#5a9296" stroke="#493c32"/><polyline points="-10.60881,5.875 -10.60881,1.375" fill="none" stroke="#493c32"/><polyline points="-9.09327,4.725 -12.12436,2.975" fill="none" stroke="#bc9356"/><polygon points="-16.02147,2.75 -16.02147,-1.75 -19.05256,-3.5 -19.05256,1" fill="#5a9296" stroke="#493c32"/><polyline points="-17.53701,1.875 -17.53701,-2.625" fill="none" stroke="#493c32"/><polyline points="-16.02147,0.725 -19.05256,-1.025" fill="none" stroke="#bc9356"/><polygon points="-9.09327,-3.25 -9.09327,-7.75 -12.12436,-9.5 -12.12436,-5" fill="#5a9296" stroke="#493c32"/><polyline points="-10.60881,-4.125 -10.60881,-8.625" fill="none" stroke="#493c32"/><polyline points="-9.09327,-5.275 -12.12436,-7.025" fill="none" stroke="#bc9356"/><polygon points="-16.02147,-7.25 -16.02147,-11.75 -19.05256,-13.5 -19.05256,-9" fill="#5a9296" stroke="#493c32"/><polyline points="-17.53701,-8.125 -17.53701,-12.625" fill="none" stroke="#493c32"/><polyline points="-16.02147,-9.275 -19.05256,-11.025" fill="none" stroke="#bc9356"/><polygon points="-9.09327,-13.25 -9.09327,-17.75 -12.12436,-19.5 -12.12436,-15" fill="#5a9296" stroke="#493c32"/><polyline points="-10.60881,-14.125 -10.60881,-18.625" fill="none" stroke="#493c32"/><polyline points="-9.09327,-15.275 -12.12436,-17.025" fill="none" stroke="#bc9356"/><polygon points="-16.02147,-17.25 -16.02147,-21.75 -19.05256,-23.5 -19.05256,-19" fill="#5a9296" stroke="#493c32"/><polyline points="-17.53701,-18.125 -17.53701,-22.625" fill="none" stroke="#493c32"/><polyline points="-16.02147,-19.275 -19.05256,-21.025" fill="none" stroke="#bc9356"/><polygon points="-6.49519,-18.75 -21.21762,-27.25 3.03109,-41.25 17.75352,-32.75" fill="#fff5df" stroke="#493c32"/><polygon points="-14.72243,-35.5 -6.49519,-17.75 19.48557,-32.75 11.25833,-50.5" fill="#5a9296" stroke="#493c32"/><polyline points="-13.07698,-31.95 12.90378,-46.95" fill="none" stroke="#bc9356"/><polyline points="-11.43154,-28.4 14.54923,-43.4" fill="none" stroke="#bc9356"/><polyline points="-9.78609,-24.85 16.19468,-39.85" fill="none" stroke="#bc9356"/><polyline points="-8.14064,-21.3 17.84012,-36.3" fill="none" stroke="#bc9356"/><polyline points="-11.25833,-37.5 -3.03109,-19.75" fill="none" stroke="#b6a58d"/><polyline points="-6.9282,-40 1.29904,-22.25" fill="none" stroke="#b6a58d"/><polyline points="-2.59808,-42.5 5.62917,-24.75" fill="none" stroke="#b6a58d"/><polyline points="1.73205,-45 9.95929,-27.25" fill="none" stroke="#b6a58d"/><polyline points="6.06218,-47.5 14.28942,-29.75" fill="none" stroke="#b6a58d"/><polygon points="-9.95929,-32.75 -13.42339,-30.75 -13.42339,-41.75 -9.95929,-43.75" fill="#b6a58d" stroke="#493c32"/><polygon points="-13.42339,-30.75 -16.02147,-32.25 -16.02147,-43.25 -13.42339,-41.75" fill="#b6a58d" stroke="#493c32"/><polygon points="-6.49519,-18.75 -21.21762,-27.25 -13.85641,-36" fill="#fff5df" stroke="#493c32"/><polyline points="-13.85641,-23 -13.85641,-36" fill="none" stroke="#bc9356"/><polyline points="-7.36122,-19.75 -13.85641,-35 -20.3516,-27.25" fill="none" stroke="#bc9356"/><polygon points="-13.42339,-41.75 -16.02147,-43.25 -12.55737,-45.25 -9.95929,-43.75" fill="#b6a58d" stroke="#493c32"/><polygon points="-13.42339,-42.25 -16.8875,-44.25 -12.55737,-46.75 -9.09327,-44.75" fill="#493c32" stroke="#493c32"/><polygon points="-9.09327,-43.75 -13.42339,-41.25 -13.42339,-42.25 -9.09327,-44.75" fill="#b6a58d" stroke="#493c32"/><polygon points="-13.42339,-41.25 -16.8875,-43.25 -16.8875,-44.25 -13.42339,-42.25" fill="#fff5df" stroke="#493c32"/></g></svg>