<svg xmlns="http://www.w3.org/2000/svg" viewBox="-43.30127018922193 -31.5 86.60254037844386 58.5"><g stroke-width="0.65" stroke-linejoin="round" stroke-linecap="round"><polygon points="43.30127,0 0,25 -43.30127,0 0,-25" fill="#758464" stroke="#493c32"/><polyline points="-2.59808,-20.52 -5.19615,-22.02" fill="none" stroke="#b6a58d"/><polyline points="-2.59808,20.48 -5.19615,21.98" fill="none" stroke="#b6a58d"/><polyline points="-8.66025,-17.02 -11.25833,-18.52" fill="none" stroke="#b6a58d"/><polyline points="-8.66025,16.98 -11.25833,18.48" fill="none" stroke="#b6a58d"/><polyline points="-14.72243,-13.52 -17.32051,-15.02" fill="none" stroke="#b6a58d"/><polyline points="-14.72243,13.48 -17.32051,14.98" fill="none" stroke="#b6a58d"/><polyline points="-20.78461,-10.02 -23.38269,-11.52" fill="none" stroke="#b6a58d"/><polyline points="-20.78461,9.98 -23.38269,11.48" fill="none" stroke="#b6a58d"/><polyline points="-26.84679,-6.52 -29.44486,-8.02" fill="none" stroke="#b6a58d"/><polyline points="-26.84679,6.48 -29.44486,7.98" fill="none" stroke="#b6a58d"/><polyline points="-32.90897,-3.02 -35.50704,-4.52" fill="none" stroke="#b6a58d"/><polyline points="-32.90897,2.98 -35.50704,4.48" fill="none" stroke="#b6a58d"/><polyline points="-38.97114,0.48 -41.56922,-1.02" fill="none" stroke="#b6a58d"/><polyline points="-38.97114,-0.52 -41.56922,0.98" fill="none" stroke="#b6a58d"/><polygon points="1.90526,-14.5 0.86603,-13.9 0.86603,-20.65 1.90526,-21.25" fill="#bc9356" stroke="#493c32"/><polygon points="0.86603,-13.9 -0.17321,-14.5 -0.17321,-21.25 0.86603,-20.65" fill="#bc9356" stroke="#493c32"/><polygon points="-3.57027,-16.8137 -3.57027,-18.1863 0.86603,-23.5" fill="#758464" stroke="#493c32"/><polygon points="5.30232,-18.1863 5.30232,-16.8137 0.86603,-23.5" fill="#758464" stroke="#493c32"/><polygon points="-2.38157,-15.625 -3.57027,-16.8137 0.86603,-23.5" fill="#758464" stroke="#493c32"/><polygon points="5.30232,-16.8137 4.11362,-15.625 0.86603,-23.5" fill="#758464" stroke="#493c32"/><polygon points="1.90526,-21.25 0.86603,-20.65 -0.17321,-21.25 0.86603,-21.85" fill="#bc9356" stroke="#493c32"/><polygon points="4.11362,-15.625 2.05473,-14.9387 0.86603,-23.5" fill="#758464" stroke="#493c32"/><polygon points="-0.32268,-14.9387 -2.38157,-15.625 0.86603,-23.5" fill="#758464" stroke="#493c32"/><polygon points="-2.68301,-19.95096 -2.68301,-21.04904 0.86603,-26.5" fill="#758464" stroke="#493c32"/><polygon points="4.41506,-21.04904 4.41506,-19.95096 0.86603,-26.5" fill="#758464" stroke="#493c32"/><polygon points="2.05473,-14.9387 -0.32268,-14.9387 0.86603,-23.5" fill="#758464" stroke="#493c32"/><polygon points="-1.73205,-19 -2.68301,-19.95096 0.86603,-26.5" fill="#758464" stroke="#493c32"/><polygon points="4.41506,-19.95096 3.4641,-19 0.86603,-26.5" fill="#758464" stroke="#493c32"/><polygon points="3.4641,-19 1.81699,-18.45096 0.86603,-26.5" fill="#758464" stroke="#493c32"/><polygon points="-0.08494,-18.45096 -1.73205,-19 0.86603,-26.5" fill="#758464" stroke="#493c32"/><polygon points="1.81699,-18.45096 -0.08494,-18.45096 0.86603,-26.5" fill="#758464" stroke="#493c32"/><polygon points="-1.79575,-23.08822 -1.79575,-23.91178 0.86603,-29.5" fill="#758464" stroke="#493c32"/><polygon points="3.5278,-23.91178 3.5278,-23.08822 0.86603,-29.5" fill="#758464" stroke="#493c32"/><polygon points="-1.08253,-22.375 -1.79575,-23.08822 0.86603,-29.5" fill="#758464" stroke="#493c32"/><polygon points="3.5278,-23.08822 2.81458,-22.375 0.86603,-29.5" fill="#758464" stroke="#493c32"/><polygon points="2.81458,-22.375 1.57925,-21.96322 0.86603,-29.5" fill="#758464" stroke="#493c32"/><polygon points="0.1528,-21.96322 -1.08253,-22.375 0.86603,-29.5" fill="#758464" stroke="#493c32"/><polygon points="1.57925,-21.96322 0.1528,-21.96322 0.86603,-29.5" fill="#758464" stroke="#493c32"/><polygon points="6.06218,1.5 -6.06218,-5.5 -6.06218,-8.5 6.06218,-1.5" fill="#bc9356" stroke="#493c32"/><polygon points="8.66025,-3 6.06218,-1.5 -6.06218,-8.5 -3.4641,-10" fill="#bc9356" stroke="#493c32"/><polygon points="1.73205,4 -10.3923,-3 -10.3923,-6 1.73205,1" fill="#bc9356" stroke="#493c32"/><polygon points="4.33013,-0.5 1.73205,1 -10.3923,-6 -7.79423,-7.5" fill="#bc9356" stroke="#493c32"/><polygon points="27.88602,-0.5 26.84679,0.1 26.84679,-6.65 27.88602,-7.25" fill="#bc9356" stroke="#493c32"/><polygon points="26.84679,0.1 25.80756,-0.5 25.80756,-7.25 26.84679,-6.65" fill="#bc9356" stroke="#493c32"/><polygon points="8.66025,0 6.06218,1.5 6.06218,-1.5 8.66025,-3" fill="#bc9356" stroke="#493c32"/><polygon points="-26.67358,0 -27.71281,0.6 -27.71281,-6.15 -26.67358,-6.75" fill="#bc9356" stroke="#493c32"/><polygon points="-27.71281,0.6 -28.75204,0 -28.75204,-6.75 -27.71281,-6.15" fill="#bc9356" stroke="#493c32"/><polygon points="22.41049,-2.8137 22.41049,-4.1863 26.84679,-9.5" fill="#758464" stroke="#493c32"/><polygon points="31.28309,-4.1863 31.28309,-2.8137 26.84679,-9.5" fill="#758464" stroke="#493c32"/><polygon points="-23.27652,-3.6863 -23.27652,-2.3137 -27.71281,-9" fill="#758464" stroke="#493c32"/><polygon points="-32.14911,-2.3137 -32.14911,-3.6863 -27.71281,-9" fill="#758464" stroke="#493c32"/><polygon points="23.59919,-1.625 22.41049,-2.8137 26.84679,-9.5" fill="#758464" stroke="#493c32"/><polygon points="31.28309,-2.8137 30.09438,-1.625 26.84679,-9.5" fill="#758464" stroke="#493c32"/><polygon points="27.88602,-7.25 26.84679,-6.65 25.80756,-7.25 26.84679,-7.85" fill="#bc9356" stroke="#493c32"/><polygon points="-30.96041,-1.125 -32.14911,-2.3137 -27.71281,-9" fill="#758464" stroke="#493c32"/><polygon points="-23.27652,-2.3137 -24.46522,-1.125 -27.71281,-9" fill="#758464" stroke="#493c32"/><polygon points="-26.67358,-6.75 -27.71281,-6.15 -28.75204,-6.75 -27.71281,-7.35" fill="#bc9356" stroke="#493c32"/><polygon points="30.09438,-1.625 28.03549,-0.9387 26.84679,-9.5" fill="#758464" stroke="#493c32"/><polygon points="25.65809,-0.9387 23.59919,-1.625 26.84679,-9.5" fill="#758464" stroke="#493c32"/><polygon points="23.29775,-5.95096 23.29775,-7.04904 26.84679,-12.5" fill="#758464" stroke="#493c32"/><polygon points="30.39583,-7.04904 30.39583,-5.95096 26.84679,-12.5" fill="#758464" stroke="#493c32"/><polygon points="28.03549,-0.9387 25.65809,-0.9387 26.84679,-9.5" fill="#758464" stroke="#493c32"/><polygon points="-2.59808,6.5 -14.72243,-0.5 -14.72243,-3.5 -2.59808,3.5" fill="#bc9356" stroke="#493c32"/><polygon points="0,2 -2.59808,3.5 -14.72243,-3.5 -12.12436,-5" fill="#bc9356" stroke="#493c32"/><polygon points="-24.46522,-1.125 -26.52411,-0.4387 -27.71281,-9" fill="#758464" stroke="#493c32"/><polygon points="-28.90152,-0.4387 -30.96041,-1.125 -27.71281,-9" fill="#758464" stroke="#493c32"/><polygon points="-31.26185,-5.45096 -31.26185,-6.54904 -27.71281,-12" fill="#758464" stroke="#493c32"/><polygon points="-24.16377,-6.54904 -24.16377,-5.45096 -27.71281,-12" fill="#758464" stroke="#493c32"/><polygon points="4.33013,2.5 1.73205,4 1.73205,1 4.33013,-0.5" fill="#bc9356" stroke="#493c32"/><polygon points="24.24871,-5 23.29775,-5.95096 26.84679,-12.5" fill="#758464" stroke="#493c32"/><polygon points="30.39583,-5.95096 29.44486,-5 26.84679,-12.5" fill="#758464" stroke="#493c32"/><polygon points="-26.52411,-0.4387 -28.90152,-0.4387 -27.71281,-9" fill="#758464" stroke="#493c32"/><polygon points="29.44486,-5 27.79775,-4.45096 26.84679,-12.5" fill="#758464" stroke="#493c32"/><polygon points="25.89583,-4.45096 24.24871,-5 26.84679,-12.5" fill="#758464" stroke="#493c32"/><polygon points="-30.31089,-4.5 -31.26185,-5.45096 -27.71281,-12" fill="#758464" stroke="#493c32"/><polygon points="-24.16377,-5.45096 -25.11474,-4.5 -27.71281,-12" fill="#758464" stroke="#493c32"/><polygon points="27.79775,-4.45096 25.89583,-4.45096 26.84679,-12.5" fill="#758464" stroke="#493c32"/><polygon points="24.18501,-9.08822 24.18501,-9.91178 26.84679,-15.5" fill="#758464" stroke="#493c32"/><polygon points="29.50857,-9.91178 29.50857,-9.08822 26.84679,-15.5" fill="#758464" stroke="#493c32"/><polygon points="-25.11474,-4.5 -26.76185,-3.95096 -27.71281,-12" fill="#758464" stroke="#493c32"/><polygon points="-28.66377,-3.95096 -30.31089,-4.5 -27.71281,-12" fill="#758464" stroke="#493c32"/><polygon points="-26.76185,-3.95096 -28.66377,-3.95096 -27.71281,-12" fill="#758464" stroke="#493c32"/><polygon points="-30.37459,-8.58822 -30.37459,-9.41178 -27.71281,-15" fill="#758464" stroke="#493c32"/><polygon points="-25.05103,-9.41178 -25.05103,-8.58822 -27.71281,-15" fill="#758464" stroke="#493c32"/><polygon points="24.89823,-8.375 24.18501,-9.08822 26.84679,-15.5" fill="#758464" stroke="#493c32"/><polygon points="29.50857,-9.08822 28.79534,-8.375 26.84679,-15.5" fill="#758464" stroke="#493c32"/><polygon points="28.79534,-8.375 27.56001,-7.96322 26.84679,-15.5" fill="#758464" stroke="#493c32"/><polygon points="26.13357,-7.96322 24.89823,-8.375 26.84679,-15.5" fill="#758464" stroke="#493c32"/><polygon points="-29.66137,-7.875 -30.37459,-8.58822 -27.71281,-15" fill="#758464" stroke="#493c32"/><polygon points="-25.05103,-8.58822 -25.76426,-7.875 -27.71281,-15" fill="#758464" stroke="#493c32"/><polygon points="27.56001,-7.96322 26.13357,-7.96322 26.84679,-15.5" fill="#758464" stroke="#493c32"/><polygon points="-25.76426,-7.875 -26.99959,-7.46322 -27.71281,-15" fill="#758464" stroke="#493c32"/><polygon points="-28.42603,-7.46322 -29.66137,-7.875 -27.71281,-15" fill="#758464" stroke="#493c32"/><polygon points="0,5 -2.59808,6.5 -2.59808,3.5 0,2" fill="#bc9356" stroke="#493c32"/><polygon points="-26.99959,-7.46322 -28.42603,-7.46322 -27.71281,-15" fill="#758464" stroke="#493c32"/><polygon points="1.03923,14 0,14.6 0,7.85 1.03923,7.25" fill="#bc9356" stroke="#493c32"/><polygon points="0,14.6 -1.03923,14 -1.03923,7.25 0,7.85" fill="#bc9356" stroke="#493c32"/><polygon points="-4.4363,11.6863 -4.4363,10.3137 0,5" fill="#758464" stroke="#493c32"/><polygon points="4.4363,10.3137 4.4363,11.6863 0,5" fill="#758464" stroke="#493c32"/><polygon points="-3.2476,12.875 -4.4363,11.6863 0,5" fill="#758464" stroke="#493c32"/><polygon points="4.4363,11.6863 3.2476,12.875 0,5" fill="#758464" stroke="#493c32"/><polygon points="1.03923,7.25 0,7.85 -1.03923,7.25 0,6.65" fill="#bc9356" stroke="#493c32"/><polygon points="3.2476,12.875 1.1887,13.5613 0,5" fill="#758464" stroke="#493c32"/><polygon points="-1.1887,13.5613 -3.2476,12.875 0,5" fill="#758464" stroke="#493c32"/><polygon points="-3.54904,8.54904 -3.54904,7.45096 0,2" fill="#758464" stroke="#493c32"/><polygon points="3.54904,7.45096 3.54904,8.54904 0,2" fill="#758464" stroke="#493c32"/><polygon points="1.1887,13.5613 -1.1887,13.5613 0,5" fill="#758464" stroke="#493c32"/><polygon points="-2.59808,9.5 -3.54904,8.54904 0,2" fill="#758464" stroke="#493c32"/><polygon points="3.54904,8.54904 2.59808,9.5 0,2" fill="#758464" stroke="#493c32"/><polygon points="2.59808,9.5 0.95096,10.04904 0,2" fill="#758464" stroke="#493c32"/><polygon points="-0.95096,10.04904 -2.59808,9.5 0,2" fill="#758464" stroke="#493c32"/><polygon points="0.95096,10.04904 -0.95096,10.04904 0,2" fill="#758464" stroke="#493c32"/><polygon points="-2.66178,5.41178 -2.66178,4.58822 0,-1" fill="#758464" stroke="#493c32"/><polygon points="2.66178,4.58822 2.66178,5.41178 0,-1" fill="#758464" stroke="#493c32"/><polygon points="-1.94856,6.125 -2.66178,5.41178 0,-1" fill="#758464" stroke="#493c32"/><polygon points="2.66178,5.41178 1.94856,6.125 0,-1" fill="#758464" stroke="#493c32"/><polygon points="1.94856,6.125 0.71322,6.53678 0,-1" fill="#758464" stroke="#493c32"/><polygon points="-0.71322,6.53678 -1.94856,6.125 0,-1" fill="#758464" stroke="#493c32"/><polygon points="0.71322,6.53678 -0.71322,6.53678 0,-1" fill="#758464" stroke="#493c32"/></g></svg>