<svg xmlns="http://www.w3.org/2000/svg" viewBox="-41.837168574084174 -29.5 83.67433714816835 56.5"><g stroke-width="0.65" stroke-linejoin="round" stroke-linecap="round"><polygon points="0,23 -39.83717,0 0,-23 39.83717,0" fill="#fff5df" stroke="#493c32"/><polyline points="32.04294,-1.52 34.64102,-3.02" fill="none" stroke="#b6a58d"/><polyline points="-32.04294,-1.52 -34.64102,-3.02" fill="none" stroke="#b6a58d"/><polyline points="25.98076,-5.02 28.57884,-6.52" fill="none" stroke="#b6a58d"/><polyline points="-25.98076,-5.02 -28.57884,-6.52" fill="none" stroke="#b6a58d"/><polyline points="19.91858,-8.52 22.51666,-10.02" fill="none" stroke="#b6a58d"/><polyline points="-19.91858,-8.52 -22.51666,-10.02" fill="none" stroke="#b6a58d"/><polyline points="13.85641,-12.02 16.45448,-13.52" fill="none" stroke="#b6a58d"/><polyline points="-13.85641,-12.02 -16.45448,-13.52" fill="none" stroke="#b6a58d"/><polyline points="7.79423,-15.52 10.3923,-17.02" fill="none" stroke="#b6a58d"/><polyline points="-7.79423,-15.52 -10.3923,-17.02" fill="none" stroke="#b6a58d"/><polyline points="1.73205,-19.02 4.33013,-20.52" fill="none" stroke="#b6a58d"/><polyline points="-1.73205,-19.02 -4.33013,-20.52" fill="none" stroke="#b6a58d"/><polygon points="-4.46019,-15.19745 -4.75622,-16.27654 -4.75622,-22.27654 -4.46019,-21.19745" fill="#bc9356" stroke="#493c32"/><polyline points="-4.46019,-16.19745 -4.75622,-17.27654" fill="none" stroke="#493c32"/><polyline points="-4.46019,-20.19745 -4.75622,-21.27654" fill="none" stroke="#493c32"/><polygon points="1.29211,-15.72346 0.43301,-14.75 0.43301,-20.75 1.29211,-21.72346" fill="#bc9356" stroke="#493c32"/><polyline points="1.29211,-16.72346 0.43301,-15.75" fill="none" stroke="#493c32"/><polyline points="1.29211,-20.72346 0.43301,-19.75" fill="none" stroke="#493c32"/><polygon points="-3.12211,-14.42491 -4.46019,-15.19745 -4.46019,-21.19745 -3.12211,-20.42491" fill="#bc9356" stroke="#493c32"/><polyline points="-3.12211,-15.42491 -4.46019,-16.19745" fill="none" stroke="#493c32"/><polyline points="-3.12211,-19.42491 -4.46019,-20.19745" fill="none" stroke="#493c32"/><polygon points="0.43301,-14.75 -1.25307,-14.254 -1.25307,-20.254 0.43301,-20.75" fill="#bc9356" stroke="#493c32"/><polyline points="0.43301,-15.75 -1.25307,-15.254" fill="none" stroke="#493c32"/><polyline points="0.43301,-19.75 -1.25307,-19.254" fill="none" stroke="#493c32"/><polygon points="-3.89711,-23.25 -2.21103,-23.746 -0.34199,-23.57509 0.99609,-22.80255 1.29211,-21.72346 0.43301,-20.75 -1.25307,-20.254 -3.12211,-20.42491 -4.46019,-21.19745 -4.75622,-22.27654" fill="#bc9356" stroke="#493c32"/><polygon points="-1.25307,-14.254 -3.12211,-14.42491 -3.12211,-20.42491 -1.25307,-20.254" fill="#bc9356" stroke="#493c32"/><polyline points="-1.25307,-15.254 -3.12211,-15.42491" fill="none" stroke="#493c32"/><polyline points="-1.25307,-19.254 -3.12211,-19.42491" fill="none" stroke="#493c32"/><polygon points="2.59808,-11.5 1.99186,-11.85 1.99186,-20.85 2.59808,-20.5" fill="#bc9356" stroke="#493c32"/><polygon points="3.20429,-11.85 2.59808,-11.5 2.59808,-20.5 3.20429,-20.85" fill="#bc9356" stroke="#493c32"/><polygon points="2.59808,-20.5 1.99186,-20.85 2.59808,-21.2 3.20429,-20.85" fill="#bc9356" stroke="#493c32"/><polygon points="8.53717,-13.45427 8.33587,-14.18805 8.33587,-17.18805 8.53717,-16.45427" fill="#bc9356" stroke="#493c32"/><polyline points="8.53717,-14.45427 8.33587,-15.18805" fill="none" stroke="#493c32"/><polyline points="8.53717,-15.45427 8.33587,-16.18805" fill="none" stroke="#493c32"/><polygon points="12.44874,-13.81195 11.86455,-13.15 11.86455,-16.15 12.44874,-16.81195" fill="#bc9356" stroke="#493c32"/><polyline points="12.44874,-14.81195 11.86455,-14.15" fill="none" stroke="#493c32"/><polyline points="12.44874,-15.81195 11.86455,-15.15" fill="none" stroke="#493c32"/><polygon points="8.92006,-17.85 10.0666,-18.18728 11.33754,-18.07106 12.24744,-17.54573 12.44874,-16.81195 11.86455,-16.15 10.71801,-15.81272 9.44707,-15.92894 8.53717,-16.45427 8.33587,-17.18805" fill="#bc9356" stroke="#493c32"/><polygon points="9.44707,-12.92894 8.53717,-13.45427 8.53717,-16.45427 9.44707,-15.92894" fill="#bc9356" stroke="#493c32"/><polyline points="9.44707,-13.92894 8.53717,-14.45427" fill="none" stroke="#493c32"/><polyline points="9.44707,-14.92894 8.53717,-15.45427" fill="none" stroke="#493c32"/><polygon points="11.86455,-13.15 10.71801,-12.81272 10.71801,-15.81272 11.86455,-16.15" fill="#bc9356" stroke="#493c32"/><polyline points="11.86455,-14.15 10.71801,-13.81272" fill="none" stroke="#493c32"/><polyline points="11.86455,-15.15 10.71801,-14.81272" fill="none" stroke="#493c32"/><polygon points="10.71801,-12.81272 9.44707,-12.92894 9.44707,-15.92894 10.71801,-15.81272" fill="#bc9356" stroke="#493c32"/><polyline points="10.71801,-13.81272 9.44707,-13.92894" fill="none" stroke="#493c32"/><polyline points="10.71801,-14.81272 9.44707,-14.92894" fill="none" stroke="#493c32"/><polygon points="22.51666,-5 5.19615,-15 9.52628,-17.5 26.84679,-7.5" fill="#bc9356" stroke="#493c32"/><polygon points="22.51666,-1 5.19615,-11 5.19615,-15 22.51666,-5" fill="#bc9356" stroke="#493c32"/><polygon points="-1.73205,-20 -2.59808,-20.5 3.4641,-21 4.33013,-20.5" fill="#b8583c" stroke="#493c32"/><polygon points="13.73332,-10.45427 13.53202,-11.18805 13.53202,-14.18805 13.73332,-13.45427" fill="#bc9356" stroke="#493c32"/><polyline points="13.73332,-11.45427 13.53202,-12.18805" fill="none" stroke="#493c32"/><polyline points="13.73332,-12.45427 13.53202,-13.18805" fill="none" stroke="#493c32"/><polygon points="0.86603,-18.5 -1.73205,-20 4.33013,-20.5 6.9282,-19" fill="#fff5df" stroke="#493c32"/><polygon points="17.64489,-10.81195 17.0607,-10.15 17.0607,-13.15 17.64489,-13.81195" fill="#bc9356" stroke="#493c32"/><polyline points="17.64489,-11.81195 17.0607,-11.15" fill="none" stroke="#493c32"/><polyline points="17.64489,-12.81195 17.0607,-12.15" fill="none" stroke="#493c32"/><polygon points="14.11621,-14.85 15.26275,-15.18728 16.5337,-15.07106 17.44359,-14.54573 17.64489,-13.81195 17.0607,-13.15 15.91416,-12.81272 14.64322,-12.92894 13.73332,-13.45427 13.53202,-14.18805" fill="#bc9356" stroke="#493c32"/><polygon points="14.64322,-9.92894 13.73332,-10.45427 13.73332,-13.45427 14.64322,-12.92894" fill="#bc9356" stroke="#493c32"/><polyline points="14.64322,-10.92894 13.73332,-11.45427" fill="none" stroke="#493c32"/><polyline points="14.64322,-11.92894 13.73332,-12.45427" fill="none" stroke="#493c32"/><polygon points="17.0607,-10.15 15.91416,-9.81272 15.91416,-12.81272 17.0607,-13.15" fill="#bc9356" stroke="#493c32"/><polyline points="17.0607,-11.15 15.91416,-10.81272" fill="none" stroke="#493c32"/><polyline points="17.0607,-12.15 15.91416,-11.81272" fill="none" stroke="#493c32"/><polygon points="15.91416,-9.81272 14.64322,-9.92894 14.64322,-12.92894 15.91416,-12.81272" fill="#bc9356" stroke="#493c32"/><polyline points="15.91416,-10.81272 14.64322,-10.92894" fill="none" stroke="#493c32"/><polyline points="15.91416,-11.81272 14.64322,-11.92894" fill="none" stroke="#493c32"/><polygon points="3.4641,-17 0.86603,-18.5 6.9282,-19 9.52628,-17.5" fill="#b8583c" stroke="#493c32"/><polygon points="26.84679,-3.5 22.51666,-1 22.51666,-5 26.84679,-7.5" fill="#bc9356" stroke="#493c32"/><polygon points="18.92948,-7.45427 18.72818,-8.18805 18.72818,-11.18805 18.92948,-10.45427" fill="#bc9356" stroke="#493c32"/><polyline points="18.92948,-8.45427 18.72818,-9.18805" fill="none" stroke="#493c32"/><polyline points="18.92948,-9.45427 18.72818,-10.18805" fill="none" stroke="#493c32"/><polygon points="6.06218,-15.5 3.4641,-17 9.52628,-17.5 12.12436,-16" fill="#fff5df" stroke="#493c32"/><polygon points="22.84104,-7.81195 22.25685,-7.15 22.25685,-10.15 22.84104,-10.81195" fill="#bc9356" stroke="#493c32"/><polyline points="22.84104,-8.81195 22.25685,-8.15" fill="none" stroke="#493c32"/><polyline points="22.84104,-9.81195 22.25685,-9.15" fill="none" stroke="#493c32"/><polygon points="19.31237,-11.85 20.4589,-12.18728 21.72985,-12.07106 22.63974,-11.54573 22.84104,-10.81195 22.25685,-10.15 21.11032,-9.81272 19.83937,-9.92894 18.92948,-10.45427 18.72818,-11.18805" fill="#bc9356" stroke="#493c32"/><polygon points="19.83937,-6.92894 18.92948,-7.45427 18.92948,-10.45427 19.83937,-9.92894" fill="#bc9356" stroke="#493c32"/><polyline points="19.83937,-7.92894 18.92948,-8.45427" fill="none" stroke="#493c32"/><polyline points="19.83937,-8.92894 18.92948,-9.45427" fill="none" stroke="#493c32"/><polygon points="22.25685,-7.15 21.11032,-6.81272 21.11032,-9.81272 22.25685,-10.15" fill="#bc9356" stroke="#493c32"/><polyline points="22.25685,-8.15 21.11032,-7.81272" fill="none" stroke="#493c32"/><polyline points="22.25685,-9.15 21.11032,-8.81272" fill="none" stroke="#493c32"/><polygon points="21.11032,-6.81272 19.83937,-6.92894 19.83937,-9.92894 21.11032,-9.81272" fill="#bc9356" stroke="#493c32"/><polyline points="21.11032,-7.81272 19.83937,-7.92894" fill="none" stroke="#493c32"/><polyline points="21.11032,-8.81272 19.83937,-8.92894" fill="none" stroke="#493c32"/><polygon points="8.66025,-14 6.06218,-15.5 12.12436,-16 14.72243,-14.5" fill="#b8583c" stroke="#493c32"/><polygon points="11.25833,-12.5 8.66025,-14 14.72243,-14.5 17.32051,-13" fill="#fff5df" stroke="#493c32"/><polygon points="24.24871,1 23.64249,0.65 23.64249,-8.35 24.24871,-8" fill="#bc9356" stroke="#493c32"/><polygon points="24.85493,0.65 24.24871,1 24.24871,-8 24.85493,-8.35" fill="#bc9356" stroke="#493c32"/><polygon points="13.85641,-11 11.25833,-12.5 17.32051,-13 19.91858,-11.5" fill="#b8583c" stroke="#493c32"/><polygon points="-0.86603,17 -26.84679,2 -4.33013,-11 21.65064,4" fill="#b6a58d" stroke="#493c32"/><polygon points="28.57884,-8.5 25.11474,-10.5 25.11474,-14.5 28.57884,-12.5" fill="#bc9356" stroke="#493c32"/><polyline points="27.71281,-10 25.98076,-11 25.98076,-13 27.71281,-12 27.71281,-10" fill="none" stroke="#493c32"/><polygon points="30.91711,1.15 30.31089,1.5 30.31089,-13.5 30.91711,-13.85" fill="#bc9356" stroke="#493c32"/><polygon points="30.31089,1.5 29.70467,1.15 29.70467,-13.85 30.31089,-13.5" fill="#bc9356" stroke="#493c32"/><polygon points="24.24871,-8 23.64249,-8.35 24.24871,-8.7 24.85493,-8.35" fill="#bc9356" stroke="#493c32"/><polygon points="16.45448,-9.5 13.85641,-11 19.91858,-11.5 22.51666,-10" fill="#fff5df" stroke="#493c32"/><polygon points="19.05256,-8 16.45448,-9.5 22.51666,-10 25.11474,-8.5" fill="#b8583c" stroke="#493c32"/><polygon points="30.31089,-12.5 25.11474,-15.5 25.11474,-16.2 30.31089,-13.2" fill="#bc9356" stroke="#493c32"/><polygon points="30.31089,-13.2 25.11474,-16.2 25.72095,-16.55 30.91711,-13.55" fill="#bc9356" stroke="#493c32"/><polygon points="30.91711,-12.85 30.31089,-12.5 30.31089,-13.2 30.91711,-13.55" fill="#bc9356" stroke="#493c32"/><polygon points="30.31089,-13.5 29.70467,-13.85 30.31089,-14.2 30.91711,-13.85" fill="#bc9356" stroke="#493c32"/><polygon points="-14.28942,-13.25 -27.71281,-8 -4.33013,-21.5 9.09327,-26.75" fill="#b8583c" stroke="#493c32"/><polyline points="-16.9741,-12.2 6.40859,-25.7" fill="none" stroke="#bc9356"/><polyline points="-19.65878,-11.15 3.72391,-24.65" fill="none" stroke="#bc9356"/><polyline points="-22.34346,-10.1 1.03923,-23.6" fill="none" stroke="#bc9356"/><polyline points="-25.02813,-9.05 -1.64545,-22.55" fill="none" stroke="#bc9356"/><polyline points="-10.82532,-15.25 -24.24871,-10" fill="none" stroke="#493c32"/><polyline points="-6.49519,-17.75 -19.91858,-12.5" fill="none" stroke="#493c32"/><polyline points="-2.16506,-20.25 -15.58846,-15" fill="none" stroke="#493c32"/><polyline points="2.16506,-22.75 -11.25833,-17.5" fill="none" stroke="#493c32"/><polyline points="6.49519,-25.25 -6.9282,-20" fill="none" stroke="#493c32"/><polygon points="-0.86603,6.5 -25.98076,-8 -4.33013,-20.5 20.78461,-6" fill="#fff5df" stroke="#493c32"/><polygon points="-0.86603,18 -26.84679,3 -26.84679,2 -0.86603,17" fill="#b6a58d" stroke="#493c32"/><polygon points="21.65064,5 -0.86603,18 -0.86603,17 21.65064,4" fill="#b6a58d" stroke="#493c32"/><polygon points="-0.86603,16.5 -25.98076,2 -25.98076,-8 -0.86603,6.5" fill="#fff5df" stroke="#493c32"/><polygon points="-0.86603,16.5 -1.55885,16.1 -1.55885,6.1 -0.86603,6.5" fill="#bc9356" stroke="#493c32"/><polygon points="-7.14471,12.875 -7.83753,12.475 -7.83753,2.475 -7.14471,2.875" fill="#bc9356" stroke="#493c32"/><polygon points="-13.42339,9.25 -14.11621,8.85 -14.11621,-1.15 -13.42339,-0.75" fill="#bc9356" stroke="#493c32"/><polygon points="-19.70208,5.625 -20.3949,5.225 -20.3949,-4.775 -19.70208,-4.375" fill="#bc9356" stroke="#493c32"/><polygon points="-25.98076,2 -25.98076,2 -25.98076,-8 -25.98076,-8" fill="#bc9356" stroke="#493c32"/><polyline points="-0.86603,16.5 -25.98076,2" fill="none" stroke="#bc9356"/><polyline points="-0.86603,6.5 -25.98076,-8" fill="none" stroke="#bc9356"/><polygon points="-3.4641,12 -3.4641,7.5 -6.49519,5.75 -6.49519,10.25" fill="#5a9296" stroke="#493c32"/><polyline points="-4.97965,11.125 -4.97965,6.625" fill="none" stroke="#493c32"/><polyline points="-3.4641,9.975 -6.49519,8.225" fill="none" stroke="#bc9356"/><polygon points="-10.3923,8 -10.3923,3.5 -13.42339,1.75 -13.42339,6.25" fill="#5a9296" stroke="#493c32"/><polyline points="-11.90785,7.125 -11.90785,2.625" fill="none" stroke="#493c32"/><polyline points="-10.3923,5.975 -13.42339,4.225" fill="none" stroke="#bc9356"/><polygon points="-17.32051,4 -17.32051,-0.5 -20.3516,-2.25 -20.3516,2.25" fill="#5a9296" stroke="#493c32"/><polyline points="-18.83605,3.125 -18.83605,-1.375" fill="none" stroke="#493c32"/><polyline points="-17.32051,1.975 -20.3516,0.225" fill="none" stroke="#bc9356"/><polygon points="20.78461,4 -0.86603,16.5 -0.86603,6.5 20.78461,-6" fill="#b6a58d" stroke="#493c32"/><polygon points="20.78461,4 20.09179,4.4 20.09179,-5.6 20.78461,-6" fill="#bc9356" stroke="#493c32"/><polygon points="15.37195,7.125 14.67913,7.525 14.67913,-2.475 15.37195,-2.875" fill="#bc9356" stroke="#493c32"/><polygon points="9.95929,10.25 9.26647,10.65 9.26647,0.65 9.95929,0.25" fill="#bc9356" stroke="#493c32"/><polygon points="4.54663,13.375 3.85381,13.775 3.85381,3.775 4.54663,3.375" fill="#bc9356" stroke="#493c32"/><polygon points="-0.86603,16.5 -0.86603,16.5 -0.86603,6.5 -0.86603,6.5" fill="#bc9356" stroke="#493c32"/><polyline points="20.78461,4 -0.86603,16.5" fill="none" stroke="#bc9356"/><polyline points="20.78461,-6 -0.86603,6.5" fill="none" stroke="#bc9356"/><polygon points="18.18653,2.5 18.18653,-2 15.15544,-0.25 15.15544,4.25" fill="#5a9296" stroke="#493c32"/><polyline points="16.67099,3.375 16.67099,-1.125" fill="none" stroke="#493c32"/><polyline points="18.18653,0.475 15.15544,2.225" fill="none" stroke="#bc9356"/><polygon points="11.25833,6.5 11.25833,2 8.22724,3.75 8.22724,8.25" fill="#5a9296" stroke="#493c32"/><polyline points="9.74279,7.375 9.74279,2.875" fill="none" stroke="#493c32"/><polyline points="11.25833,4.475 8.22724,6.225" fill="none" stroke="#bc9356"/><polygon points="4.33013,10.5 4.33013,6 1.29904,7.75 1.29904,12.25" fill="#5a9296" stroke="#493c32"/><polyline points="2.81458,11.375 2.81458,6.875" fill="none" stroke="#493c32"/><polyline points="4.33013,8.475 1.29904,10.225" fill="none" stroke="#bc9356"/><polygon points="-14.72243,-13.5 -18.18653,-11.5 -18.18653,-22.5 -14.72243,-24.5" fill="#b6a58d" stroke="#493c32"/><polygon points="-18.18653,-11.5 -20.78461,-13 -20.78461,-24 -18.18653,-22.5" fill="#b6a58d" stroke="#493c32"/><polygon points="-18.18653,-22.5 -20.78461,-24 -17.32051,-26 -14.72243,-24.5" fill="#b6a58d" stroke="#493c32"/><polygon points="-14.28942,-13.25 -0.86603,7.5 22.51666,-6 9.09327,-26.75" fill="#b8583c" stroke="#493c32"/><polyline points="-11.60474,-9.1 11.77795,-22.6" fill="none" stroke="#bc9356"/><polyline points="-8.92006,-4.95 14.46262,-18.45" fill="none" stroke="#bc9356"/><polyline points="-6.23538,-0.8 17.1473,-14.3" fill="none" stroke="#bc9356"/><polyline points="-3.5507,3.35 19.83198,-10.15" fill="none" stroke="#bc9356"/><polyline points="-10.82532,-15.25 2.59808,5.5" fill="none" stroke="#493c32"/><polyline points="-6.49519,-17.75 6.9282,3" fill="none" stroke="#493c32"/><polyline points="-2.16506,-20.25 11.25833,0.5" fill="none" stroke="#493c32"/><polyline points="2.16506,-22.75 15.58846,-2" fill="none" stroke="#493c32"/><polyline points="6.49519,-25.25 19.91858,-4.5" fill="none" stroke="#493c32"/><polygon points="-18.18653,-23 -21.65064,-25 -17.32051,-27.5 -13.85641,-25.5" fill="#493c32" stroke="#493c32"/><polygon points="-13.85641,-24.5 -18.18653,-22 -18.18653,-23 -13.85641,-25.5" fill="#b6a58d" stroke="#493c32"/><polygon points="-18.18653,-22 -21.65064,-24 -21.65064,-25 -18.18653,-23" fill="#fff5df" stroke="#493c32"/><polygon points="-0.86603,6.5 -25.98076,-8 -13.42339,-13.75" fill="#fff5df" stroke="#493c32"/><polyline points="-13.42339,-0.75 -13.42339,-13.75" fill="none" stroke="#bc9356"/><polyline points="-1.73205,5.5 -13.42339,-12.75 -25.11474,-8" fill="none" stroke="#bc9356"/></g></svg>