<svg xmlns="http://www.w3.org/2000/svg" viewBox="-43.30127018922193 -46.1 86.60254037844386 73.1"><g stroke-width="0.65" stroke-linejoin="round" stroke-linecap="round"><polygon points="0,-25 43.30127,0 0,25 -43.30127,0" fill="#5a9296" stroke="none"/><polyline points="-0.86603,-18.55 2.59808,-17.55 5.19615,-15.05" fill="none" stroke="#b6a58d"/><polyline points="15.58846,-6.05 19.05256,-5.05 21.65064,-2.55" fill="none" stroke="#b6a58d"/><polyline points="-4.33013,-5.55 -0.86603,-4.55 1.73205,-2.05" fill="none" stroke="#b6a58d"/><polyline points="3.4641,9.95 6.9282,10.95 9.52628,13.45" fill="none" stroke="#b6a58d"/><polyline points="-28.57884,-1.55 -25.11474,-0.55 -22.51666,1.95" fill="none" stroke="#b6a58d"/><polyline points="-19.05256,9.95 -15.58846,10.95 -12.99038,13.45" fill="none" stroke="#b6a58d"/><polygon points="-28.57884,7.9 -43.30127,-0.6 0,-25.6 14.72243,-17.1" fill="#fff5df" stroke="#493c32"/><polygon points="-28.57884,7.9 14.72243,-17.1 14.72243,-15.2 -28.57884,9.8" fill="#b6a58d" stroke="#493c32"/><polyline points="-28.57884,7.9 -43.30127,-0.6" fill="none" stroke="#b6a58d"/><polyline points="-23.16618,4.775 -37.88861,-3.725" fill="none" stroke="#b6a58d"/><polyline points="-17.75352,1.65 -32.47595,-6.85" fill="none" stroke="#b6a58d"/><polyline points="-12.34086,-1.475 -27.06329,-9.975" fill="none" stroke="#b6a58d"/><polyline points="-6.9282,-4.6 -21.65064,-13.1" fill="none" stroke="#b6a58d"/><polyline points="-1.51554,-7.725 -16.23798,-16.225" fill="none" stroke="#b6a58d"/><polyline points="3.89711,-10.85 -10.82532,-19.35" fill="none" stroke="#b6a58d"/><polyline points="9.30977,-13.975 -5.41266,-22.475" fill="none" stroke="#b6a58d"/><polyline points="14.72243,-17.1 0,-25.6" fill="none" stroke="#b6a58d"/><polygon points="-27.71281,-7.6 -17.32051,-1.6 -17.32051,-8.6 -27.71281,-14.6" fill="#fff5df" stroke="#493c32"/><polygon points="-1.73205,-10.6 -17.32051,-1.6 -17.32051,-8.6 -1.73205,-17.6" fill="#b6a58d" stroke="#493c32"/><polygon points="-12.12436,-23.6 -1.73205,-17.6 -17.32051,-8.6 -27.71281,-14.6" fill="#fff5df" stroke="#493c32"/><polygon points="-24.24871,-14.6 -17.32051,-10.6 -17.32051,-22.6 -24.24871,-26.6" fill="#fff5df" stroke="#493c32"/><polygon points="-5.19615,-17.6 -17.32051,-10.6 -17.32051,-22.6 -5.19615,-29.6" fill="#b6a58d" stroke="#493c32"/><polygon points="-12.12436,-33.6 -5.19615,-29.6 -17.32051,-22.6 -24.24871,-26.6" fill="#fff5df" stroke="#493c32"/><polygon points="-22.51666,-15 -22.51666,-19 -22.38482,-19.68925 -22.00935,-20.12132 -21.44744,-20.23044 -20.78461,-20 -20.12178,-19.46508 -19.55986,-18.70711 -19.1844,-17.84149 -19.05256,-17 -19.05256,-13" fill="#b6a58d" stroke="#493c32"/><polyline points="-23.12288,-15.35 -23.12288,-19.35 -23.12288,-19.35 -22.94489,-20.28048 -22.43802,-20.86378 -21.67943,-21.0111 -20.78461,-20.7 -19.88979,-19.97785 -19.1312,-18.95459 -18.62433,-17.78601 -18.44634,-16.65 -18.44634,-12.65" fill="none" stroke="#bc9356"/><polygon points="-25.98076,-26.6 -17.32051,-21.6 -17.32051,-22.6 -25.98076,-27.6" fill="#fff5df" stroke="#493c32"/><polygon points="-3.4641,-29.6 -17.32051,-21.6 -17.32051,-22.6 -3.4641,-30.6" fill="#b6a58d" stroke="#493c32"/><polygon points="-12.12436,-35.6 -3.4641,-30.6 -17.32051,-22.6 -25.98076,-27.6" fill="#fff5df" stroke="#493c32"/><polygon points="-22.60326,-28.6 -20.78461,-27.55 -20.78461,-28.55 -22.60326,-29.6" fill="#fff5df" stroke="#493c32"/><polygon points="-18.96596,-28.6 -20.78461,-27.55 -20.78461,-28.55 -18.96596,-29.6" fill="#b6a58d" stroke="#493c32"/><polygon points="-20.78461,-30.65 -18.96596,-29.6 -20.78461,-28.55 -22.60326,-29.6" fill="#fff5df" stroke="#493c32"/><polygon points="-21.99705,-29.6 -20.78461,-28.9 -20.78461,-32.9 -21.99705,-33.6" fill="#fff5df" stroke="#493c32"/><polygon points="-19.57217,-29.6 -20.78461,-28.9 -20.78461,-32.9 -19.57217,-33.6" fill="#b6a58d" stroke="#493c32"/><polygon points="-20.78461,-34.3 -19.57217,-33.6 -20.78461,-32.9 -21.99705,-33.6" fill="#fff5df" stroke="#493c32"/><polyline points="-21.39083,-30.25 -21.26958,-32.32" fill="none" stroke="#b6a58d"/><polygon points="-22.84575,-33.6 -20.78461,-32.41 -20.78461,-33.41 -22.84575,-34.6" fill="#fff5df" stroke="#493c32"/><polygon points="-18.72347,-33.6 -20.78461,-32.41 -20.78461,-33.41 -18.72347,-34.6" fill="#b6a58d" stroke="#493c32"/><polygon points="-20.78461,-35.79 -18.72347,-34.6 -20.78461,-33.41 -22.84575,-34.6" fill="#fff5df" stroke="#493c32"/><polygon points="-17.40711,-25.6 -15.58846,-24.55 -15.58846,-25.55 -17.40711,-26.6" fill="#fff5df" stroke="#493c32"/><polygon points="-13.7698,-25.6 -15.58846,-24.55 -15.58846,-25.55 -13.7698,-26.6" fill="#b6a58d" stroke="#493c32"/><polygon points="-15.58846,-27.65 -13.7698,-26.6 -15.58846,-25.55 -17.40711,-26.6" fill="#fff5df" stroke="#493c32"/><polygon points="-16.80089,-26.6 -15.58846,-25.9 -15.58846,-29.9 -16.80089,-30.6" fill="#fff5df" stroke="#493c32"/><polygon points="-14.37602,-26.6 -15.58846,-25.9 -15.58846,-29.9 -14.37602,-30.6" fill="#b6a58d" stroke="#493c32"/><polygon points="-15.58846,-31.3 -14.37602,-30.6 -15.58846,-29.9 -16.80089,-30.6" fill="#fff5df" stroke="#493c32"/><polyline points="-16.19468,-27.25 -16.07343,-29.32" fill="none" stroke="#b6a58d"/><polygon points="-17.6496,-30.6 -15.58846,-29.41 -15.58846,-30.41 -17.6496,-31.6" fill="#fff5df" stroke="#493c32"/><polygon points="-13.52732,-30.6 -15.58846,-29.41 -15.58846,-30.41 -13.52732,-31.6" fill="#b6a58d" stroke="#493c32"/><polygon points="-15.58846,-32.79 -13.52732,-31.6 -15.58846,-30.41 -17.6496,-31.6" fill="#fff5df" stroke="#493c32"/><polygon points="-27.71281,-33.6 -17.32051,-27.6 -22.51666,-34.6" fill="#fff5df" stroke="#493c32"/><polygon points="-12.12436,-42.6 -6.9282,-43.6 -22.51666,-34.6 -27.71281,-33.6" fill="#bc9356" stroke="#493c32"/><polygon points="-6.9282,-43.6 -1.73205,-36.6 -17.32051,-27.6 -22.51666,-34.6" fill="#bc9356" stroke="#493c32"/><polyline points="-5.88897,-42.2 -21.47743,-33.2" fill="none" stroke="#bc9356"/><polyline points="-4.84974,-40.8 -20.4382,-31.8" fill="none" stroke="#bc9356"/><polyline points="-3.81051,-39.4 -19.39897,-30.4" fill="none" stroke="#bc9356"/><polyline points="-2.77128,-38 -18.35974,-29" fill="none" stroke="#bc9356"/><polyline points="-9.52628,-42.1 -4.33013,-35.1" fill="none" stroke="#493c32"/><polyline points="-12.99038,-40.1 -7.79423,-33.1" fill="none" stroke="#493c32"/><polyline points="-16.45448,-38.1 -11.25833,-31.1" fill="none" stroke="#493c32"/><polyline points="-19.91858,-36.1 -14.72243,-29.1" fill="none" stroke="#493c32"/><polyline points="-6.9282,-44.1 -22.51666,-35.1" fill="none" stroke="#bc9356"/></g></svg>